<?xml version="1.0" encoding="utf-8"?>
<!-- Generator: Adobe Illustrator 26.1.0, SVG Export Plug-In . SVG Version: 6.00 Build 0)  -->
<svg version="1.1" id="Layer_1" xmlns="http://www.w3.org/2000/svg" xmlns:xlink="http://www.w3.org/1999/xlink" x="0px" y="0px"
	 viewBox="0 0 288 72" style="enable-background:new 0 0 288 72;" xml:space="preserve">
<style type="text/css">
	.st0{fill:#3AAA35;}
	.st1{fill:#FFFFFF;}
	.st2{fill:#F39200;}
	.st3{fill:#95C11F;}
</style>
<g>
	<g>
		<g>
			<g>
				<path class="st0" d="M186.7,32.9v5.8h-1.3V21.9c2.4,0,4.9,0,7.4,0c7.3,0,7.3,11,0,11H186.7z M186.7,23.1v8.6h6.1
					c5.6,0,5.6-8.6,0-8.6H186.7z"/>
				<path class="st0" d="M213.1,38.7v-7.6h-10.7v7.6h-1.3V21.9h1.3v8h10.7v-8h1.3v16.8H213.1z"/>
				<path class="st0" d="M223.2,32l-6.6-10.1v0h1.5l5.7,8.8l5.7-8.8h1.5v0L224.5,32v6.7h-1.3V32z"/>
				<path class="st0" d="M244.3,25.2c-1.2-2-3.2-2.3-5.1-2.3c-2,0-5.1,0.7-5.1,3.4c0,2.1,2.3,2.6,5.1,3.2c3.2,0.6,6.6,1.2,6.6,4.8
					c0,3.8-3.8,4.7-6.6,4.7c-2.6,0-5.6-1.1-6.9-3.6l1.2-0.6c1,2,3.7,3,5.7,3s5.4-0.6,5.4-3.6c0-2.5-2.8-3.1-5.5-3.6
					c-3.1-0.6-6.2-1.2-6.2-4.3c-0.1-3.6,3.6-4.7,6.4-4.7c2.4,0,4.5,0.4,6.1,2.9L244.3,25.2z"/>
				<path class="st0" d="M248.7,38.7V21.9h1.3v16.8H248.7z"/>
				<path class="st0" d="M270.4,30.3c0,4.4-2.8,8.7-8.5,8.7s-8.5-4.3-8.5-8.7c0-4.5,2.8-8.6,8.5-8.6
					C267.5,21.7,270.4,25.8,270.4,30.3z M254.7,30.3c0,3.8,2.4,7.5,7.2,7.5c4.8,0,7.2-3.7,7.2-7.5c0-3.9-2.4-7.5-7.2-7.5
					S254.7,26.4,254.7,30.3z"/>
			</g>
		</g>
		<g>
			<g>
				<path class="st1" d="M32.8,25.6c-0.8-1.4-3.1-2.7-5.7-2.7c-3.4,0-5,1.4-5,3.2c0,2.1,2.5,2.7,5.4,3c5.1,0.6,9.8,1.9,9.8,7.7
					c0,5.4-4.8,7.7-10.2,7.7c-5,0-8.8-1.5-10.6-6l3.8-2c1.1,2.7,3.9,3.8,6.8,3.8c2.9,0,5.6-1,5.6-3.6c0-2.3-2.4-3.2-5.6-3.6
					c-5-0.6-9.5-1.9-9.5-7.3c0-5,4.9-7,9.4-7.1c3.8,0,7.7,1.1,9.5,4.8L32.8,25.6z"/>
				<path class="st1" d="M52.1,36.9h-6.9V44h-4.6V19.8c3.8,0,7.6,0,11.4,0C64,19.8,64,36.9,52.1,36.9z M45.3,32.7h6.9
					c5.9,0,5.8-8.6,0-8.6h-6.9V32.7z"/>
				<path class="st1" d="M87.9,32.1c-0.1,6.3-3.9,12.5-12.4,12.5C67,44.6,63,38.5,63,32.1c0-6.4,4.1-12.8,12.5-12.8
					C83.8,19.3,88,25.7,87.9,32.1z M67.5,32.2c0.1,4,2.3,8.2,8,8.2c5.7,0,7.9-4.3,7.9-8.3c0.1-4.1-2.2-8.7-7.9-8.7
					C69.8,23.5,67.4,28.1,67.5,32.2z"/>
				<path class="st1" d="M112.8,44h-5.4l-7.1-8.1h-4.4V44h-4.6V19.8c3.8,0,7.7,0,11.5,0c5.7,0,8.7,3.8,8.7,8c0,3.3-1.5,6.7-6.1,7.6
					l7.3,8.3V44z M95.9,24.1v7.8h7c2.9,0,4.2-1.9,4.2-3.9c0-1.9-1.3-3.9-4.2-3.9H95.9z"/>
				<path class="st1" d="M122,24h-7.7v-4.2c7,0,12.9,0,19.9,0V24h-7.7V44H122V24z"/>
			</g>
		</g>
		<g>
			<polygon class="st1" points="147.1,45.8 135,45.8 151.9,26 135,5.9 147.1,5.9 163.2,25.8 			"/>
			<polygon class="st2" points="168.3,5.9 160.1,16 165.9,23.2 180.4,5.9 			"/>
			<polygon class="st3" points="168.3,45.8 180.4,45.8 165.6,28.5 159.9,35.5 			"/>
		</g>
	</g>
	<g>
		<path class="st1" d="M78.6,57.7l-2.3,3.1h-0.3l-2.3-3.1v5.2h-1.4v-7.2h1.6l2.2,3.1l2.2-3.1h1.6v7.2h-1.4V57.7z"/>
		<path class="st1" d="M89.5,59.4c0,1.9-1.2,3.7-3.7,3.7s-3.7-1.8-3.7-3.7s1.2-3.8,3.7-3.8C88.3,55.6,89.5,57.5,89.5,59.4z
			 M83.4,59.4c0,1.2,0.7,2.4,2.4,2.4s2.3-1.3,2.4-2.5c0-1.2-0.7-2.6-2.4-2.6S83.4,58.2,83.4,59.4z"/>
		<path class="st1" d="M95.3,63h-1.4l-3-7.2h1.5l2.2,5.6l2.2-5.6h1.5L95.3,63z"/>
		<path class="st1" d="M105.7,62.9h-5.4c0-2.4,0-4.8,0-7.2h5.4v1.3h-4v1.7h3.9V60h-3.9v1.6h4V62.9z"/>
		<path class="st1" d="M114.2,57.7l-2.3,3.1h-0.3l-2.3-3.1v5.2H108v-7.2h1.6l2.2,3.1l2.2-3.1h1.6v7.2h-1.4V57.7z"/>
		<path class="st1" d="M123.4,62.9h-5.4c0-2.4,0-4.8,0-7.2h5.4v1.3h-4v1.7h3.9V60h-3.9v1.6h4V62.9z"/>
		<path class="st1" d="M130.6,55.7h1.4v7.2h-0.8v0l-3.8-4.9v4.8H126v-7.2h1.1l3.5,4.5V55.7z"/>
		<path class="st1" d="M136.3,57h-2.3v-1.2c2.1,0,3.8,0,5.9,0V57h-2.3v6h-1.4V57z"/>
		<path class="st1" d="M151.6,57.7l-2.3,3.1H149l-2.3-3.1v5.2h-1.4v-7.2h1.6l2.2,3.1l2.2-3.1h1.6v7.2h-1.4V57.7z"/>
		<path class="st1" d="M160.5,61.6h-3.8l-0.6,1.4h-1.5l3.2-7.2h1.5l3.2,7.2h-1.5L160.5,61.6z M158.7,57.3l-1.3,3.1h2.7L158.7,57.3z"
			/>
		<path class="st1" d="M171,59.3c0,1.8-1.1,3.7-3.6,3.7c-0.9,0-1.9,0-2.8,0v-7.2c0.9,0,1.9,0,2.8,0C169.9,55.7,171,57.5,171,59.3z
			 M165.9,61.6h1.5c1.6,0,2.3-1.2,2.2-2.4c0-1.1-0.7-2.2-2.2-2.2h-1.5V61.6z"/>
		<path class="st1" d="M178.5,62.9h-5.4c0-2.4,0-4.8,0-7.2h5.4v1.3h-4v1.7h3.9V60h-3.9v1.6h4V62.9z"/>
		<path class="st1" d="M189.4,62.9h-5.4c0-2.4,0-4.8,0-7.2h5.4v1.3h-4v1.7h3.9V60h-3.9v1.6h4V62.9z"/>
		<path class="st1" d="M196.8,61.6h-3.8l-0.6,1.4H191l3.2-7.2h1.5l3.2,7.2h-1.5L196.8,61.6z M194.9,57.3l-1.3,3.1h2.7L194.9,57.3z"
			/>
		<path class="st1" d="M205.1,57.5c-0.2-0.4-0.9-0.8-1.7-0.8c-1,0-1.5,0.4-1.5,1c0,0.6,0.7,0.8,1.6,0.9c1.5,0.2,2.9,0.6,2.9,2.3
			c0,1.6-1.4,2.3-3,2.3c-1.5,0-2.6-0.5-3.1-1.8l1.1-0.6c0.3,0.8,1.2,1.1,2,1.1c0.9,0,1.7-0.3,1.7-1.1c0-0.7-0.7-1-1.7-1.1
			c-1.5-0.2-2.8-0.6-2.8-2.2c0-1.5,1.5-2.1,2.8-2.1c1.1,0,2.3,0.3,2.8,1.4L205.1,57.5z"/>
		<path class="st1" d="M211.3,58.7l1.9-3h1.6v0.1L212,60v3h-1.4v-3l-2.8-4.2v-0.1h1.6L211.3,58.7z"/>
	</g>
</g>
</svg>
